<svg width="22" height="17" viewBox="0 0 22 17" fill="none" xmlns="http://www.w3.org/2000/svg">
<path d="M20.0315 0.0404321C20.0393 0.195673 19.9451 0.309446 19.8872 0.435978C18.9673 2.43497 18.0464 4.43291 17.1255 6.4319C17.0097 6.68284 17.0853 6.80866 17.3523 6.80937C18.6747 6.80937 19.9961 6.81575 21.3185 6.80405C21.5551 6.80193 21.6553 6.83489 21.6543 7.1358C21.6435 10.3044 21.6445 13.473 21.6523 16.6417C21.6523 16.9096 21.5983 17.0011 21.3333 17C18.4077 16.9894 15.4821 16.9894 12.5565 17C12.2865 17 12.2384 16.9022 12.2394 16.6363C12.2473 13.455 12.2453 10.2725 12.2424 7.09114C12.2424 6.89975 12.2816 6.73175 12.3612 6.56056C13.3291 4.46906 14.2932 2.37543 15.2573 0.282864C15.328 0.128686 15.3849 -0.00209977 15.597 2.68221e-05C17.0539 0.0127864 18.5098 0.0074694 19.9667 0.00959599C19.9863 0.00959599 20.006 0.0276725 20.0315 0.0404321Z" fill="#999999"/>
<path d="M7.83459 0.00641441C6.78424 2.28704 5.75352 4.52301 4.70023 6.80895C6.12262 6.80895 7.48808 6.80895 8.85353 6.80895C9.22328 6.80895 9.40816 7.01167 9.40816 7.41712C9.40816 10.4792 9.40423 13.5402 9.41503 16.6023C9.41601 16.9117 9.34828 17.0011 9.05379 17C6.15403 16.9872 3.25329 16.9883 0.353539 16.9989C0.0914421 16.9989 -0.000828743 16.949 0.000152588 16.6364C0.0119324 13.4424 0.00898647 10.2474 0.00505924 7.05349C0.00505924 6.86105 0.0482512 6.69199 0.126781 6.524C1.08388 4.45709 2.04097 2.39017 2.98825 0.319004C3.09329 0.0904102 3.20716 -0.00209045 3.45649 3.62396e-05C4.89656 0.0159855 6.3376 0.00747871 7.83656 0.00747871L7.83459 0.00641441Z" fill="#999999"/>
</svg>
