<svg width="22" height="17" viewBox="0 0 22 17" fill="none" xmlns="http://www.w3.org/2000/svg">
<path d="M1.96852 16.9596C1.96067 16.8043 2.05492 16.6906 2.11284 16.564C3.03273 14.565 3.9536 12.5671 4.87447 10.5681C4.99031 10.3172 4.91472 10.1913 4.64769 10.1906C3.32529 10.1906 2.00387 10.1843 0.681465 10.1959C0.444866 10.1981 0.344729 10.1651 0.34571 9.8642C0.356509 6.69558 0.355527 3.52696 0.347673 0.358339C0.347673 0.0903887 0.401669 -0.00105414 0.666738 9.15051e-06C3.59232 0.0106421 6.5179 0.0106421 9.44348 9.15051e-06C9.71346 9.15051e-06 9.76156 0.0978321 9.76058 0.363656C9.75273 3.54504 9.75469 6.72748 9.75764 9.90886C9.75764 10.1003 9.71837 10.2683 9.63885 10.4394C8.67085 12.5309 7.70679 14.6246 6.74272 16.7171C6.67203 16.8713 6.61509 17.0021 6.40304 17C4.94614 16.9872 3.49022 16.9925 2.03332 16.9904C2.01368 16.9904 1.99307 16.9723 1.96754 16.9596H1.96852Z" fill="#999999"/>
<path d="M14.1654 16.9936C15.2158 14.713 16.2465 12.477 17.2998 10.1911C15.8774 10.1911 14.5119 10.1911 13.1465 10.1911C12.7767 10.1911 12.5918 9.98833 12.5918 9.58288C12.5918 6.52079 12.5958 3.45975 12.585 0.397657C12.584 0.0882579 12.6517 -0.00105387 12.9462 9.35513e-06C15.846 0.0127681 18.7467 0.0117051 21.6465 0.00107281C21.9086 0.00107281 22.0008 0.0510441 21.9998 0.363633C21.9881 3.55757 21.991 6.75257 21.9949 9.94651C21.9949 10.139 21.9517 10.308 21.8732 10.476C20.9161 12.5429 19.959 14.6098 19.0117 16.681C18.9067 16.9096 18.7928 17.0021 18.5435 17C17.1034 16.984 15.6624 16.9925 14.1634 16.9925L14.1654 16.9936Z" fill="#999999"/>
</svg>
