<svg width="36" height="36" viewBox="0 0 36 36" fill="none" xmlns="http://www.w3.org/2000/svg">
<path d="M24.8683 3H11.0994C8.95127 3 6.89117 3.92962 5.37224 5.58435C3.85332 7.23908 3 9.48338 3 11.8235V24.1765C3 25.3352 3.2095 26.4826 3.61653 27.5531C4.02356 28.6236 4.62015 29.5963 5.37224 30.4156C6.89117 32.0704 8.95127 33 11.0994 33H24.8683C25.9319 33 26.9851 32.7718 27.9677 32.3283C28.9504 31.8849 29.8433 31.235 30.5954 30.4156C31.3475 29.5963 31.944 28.6236 32.3511 27.5531C32.7581 26.4826 32.9676 25.3352 32.9676 24.1765V11.8235C32.9676 10.6648 32.7581 9.51743 32.3511 8.44691C31.944 7.37639 31.3475 6.40369 30.5954 5.58435C29.8433 4.76501 28.9504 4.11508 27.9677 3.67165C26.9851 3.22823 25.9319 3 24.8683 3Z" stroke="#4D4D4D" stroke-width="4.5" stroke-linecap="round" stroke-linejoin="round"/>
<path d="M3.4043 26.8234L7.85894 21.1763C8.44184 20.5456 9.20685 20.1537 10.0245 20.0669C10.8422 19.9801 11.6623 20.2037 12.346 20.6999C13.0297 21.196 13.8498 21.4196 14.6674 21.3328C15.4851 21.246 16.2501 20.8541 16.833 20.2234L20.6073 16.1116C21.6918 14.9262 23.1277 14.199 24.6587 14.0601C26.1897 13.9211 27.7162 14.3792 28.9659 15.3528L32.9993 18.7587M11.5036 14.7704C11.8568 14.7704 12.2064 14.6947 12.5327 14.5475C12.8589 14.4002 13.1554 14.1845 13.405 13.9124C13.6547 13.6404 13.8528 13.3175 13.9879 12.9621C14.1231 12.6067 14.1926 12.2257 14.1926 11.841C14.1926 11.4563 14.1231 11.0754 13.9879 10.72C13.8528 10.3646 13.6547 10.0416 13.405 9.76963C13.1554 9.4976 12.8589 9.28183 12.5327 9.13461C12.2064 8.98739 11.8568 8.91162 11.5036 8.91162C10.7905 8.91162 10.1065 9.22025 9.60225 9.76963C9.09797 10.319 8.81466 11.0641 8.81466 11.841C8.81466 12.618 9.09797 13.3631 9.60225 13.9124C10.1065 14.4618 10.7905 14.7704 11.5036 14.7704Z" stroke="#4D4D4D" stroke-width="4.5" stroke-linecap="round" stroke-linejoin="round"/>
</svg>
