<svg width="31" height="40" viewBox="0 0 31 40" fill="none" xmlns="http://www.w3.org/2000/svg">
<g opacity="0.3">
<path opacity="0.3" d="M25.8589 9.11659C24.8465 9.1161 23.8758 8.71373 23.1599 7.99789C22.4441 7.28205 22.0417 6.3113 22.0412 5.29895V0.000183105H4.98221C4.32778 0.00018306 3.67977 0.129105 3.07519 0.379598C2.4706 0.630092 1.92125 0.997243 1.45858 1.46008C0.995921 1.92291 0.629006 2.47236 0.378737 3.07704C0.128468 3.68172 -0.000242846 4.3298 3.43973e-07 4.98422V35.0161C-0.000242846 35.6706 0.128468 36.3186 0.378737 36.9233C0.629006 37.528 0.995921 38.0774 1.45858 38.5403C1.92125 39.0031 2.4706 39.3703 3.07519 39.6207C3.67977 39.8712 4.32778 40.0002 4.98221 40.0002H25.4589C26.1133 40.0002 26.7613 39.8712 27.3659 39.6207C27.9705 39.3703 28.5198 39.0031 28.9825 38.5403C29.4452 38.0774 29.8121 37.528 30.0624 36.9233C30.3127 36.3186 30.4414 35.6706 30.4411 35.0161V9.11844L25.8589 9.11659Z" fill="#0033FF"/>
</g>
<path d="M30.4419 9.11659H25.8596C24.8473 9.1161 23.8765 8.71373 23.1607 7.99789C22.4449 7.28205 22.0425 6.3113 22.042 5.29895V0.000183105L30.4419 9.11659Z" fill="#0033FF"/>
<path d="M19.3112 27.1074H11.1335C10.3329 27.1064 9.56538 26.788 8.9993 26.2219C8.43321 25.6558 8.11475 24.8883 8.11377 24.0877V15.91C8.11475 15.1094 8.43321 14.3419 8.9993 13.7758C9.56538 13.2098 10.3329 12.8913 11.1335 12.8903H19.3112C20.1116 12.8913 20.8789 13.2098 21.4446 13.776C22.0104 14.3421 22.3285 15.1096 22.329 15.91V24.0877C22.3285 24.8881 22.0104 25.6556 21.4446 26.2218C20.8789 26.7879 20.1116 27.1064 19.3112 27.1074ZM11.1335 14.2252C10.6868 14.2257 10.2585 14.4034 9.94264 14.7192C9.62678 15.0351 9.44913 15.4633 9.44864 15.91V24.0877C9.44913 24.5344 9.62678 24.9627 9.94264 25.2785C10.2585 25.5944 10.6868 25.772 11.1335 25.7725H19.3112C19.7577 25.772 20.1857 25.5943 20.5013 25.2784C20.8169 24.9625 20.9941 24.5342 20.9941 24.0877V15.91C20.9941 15.4635 20.8169 15.0352 20.5013 14.7193C20.1857 14.4034 19.7577 14.2257 19.3112 14.2252H11.1335Z" fill="#0033FF"/>
<path d="M21.6606 22.5318V24.087C21.6601 24.7105 21.4122 25.3082 20.9714 25.7491C20.5305 26.1899 19.9327 26.4378 19.3093 26.4383H11.1316C10.508 26.4383 9.90991 26.1906 9.46895 25.7496C9.028 25.3087 8.78027 24.7106 8.78027 24.087V21.4765C10.0892 21.1951 12.0832 21.1062 14.503 22.0727L16.0027 20.6434L17.0246 23.2354C17.0246 23.2354 17.2986 22.2819 18.1836 22.417C19.0686 22.5522 20.5016 23.0317 21.1144 22.6225C21.2795 22.5273 21.4736 22.4951 21.6606 22.5318Z" fill="#0033FF"/>
<path d="M18.7972 17.5797C19.2993 17.5797 19.7063 17.1728 19.7063 16.6707C19.7063 16.1687 19.2993 15.7617 18.7972 15.7617C18.2952 15.7617 17.8882 16.1687 17.8882 16.6707C17.8882 17.1728 18.2952 17.5797 18.7972 17.5797Z" fill="#0033FF"/>
</svg>
