<svg width="31" height="40" viewBox="0 0 31 40" fill="none" xmlns="http://www.w3.org/2000/svg">
<g opacity="0.3">
<path opacity="0.3" d="M25.8659 9.12037C24.8534 9.11939 23.8827 8.71675 23.1668 8.00085C22.4508 7.28495 22.0482 6.31426 22.0472 5.30183V0H4.98354C3.66182 0 2.39424 0.525043 1.45965 1.4596C0.525053 2.39416 0 3.66165 0 4.98332V35.0241C0.00196274 36.3444 0.527877 37.6101 1.46226 38.543C2.39664 39.476 3.6631 40 4.98354 40H25.4677C26.7882 40 28.0546 39.476 28.989 38.543C29.9234 37.6101 30.4493 36.3444 30.4513 35.0241V9.12037H25.8659Z" fill="#0033FF"/>
</g>
<path d="M30.4524 9.12037H25.867C24.8545 9.11939 23.8838 8.71675 23.1679 8.00085C22.452 7.28495 22.0493 6.31426 22.0483 5.30183V0L30.4524 9.12037Z" fill="#0033FF"/>
<path d="M24.1859 27.934H5.06654C4.88236 27.934 4.70571 27.8608 4.57547 27.7306C4.44523 27.6003 4.37207 27.4237 4.37207 27.2395C4.37256 27.0556 4.44594 26.8794 4.57613 26.7496C4.70631 26.6198 4.88268 26.5469 5.06654 26.5469H24.1859C24.3696 26.5469 24.5457 26.6198 24.6756 26.7497C24.8055 26.8796 24.8785 27.0558 24.8785 27.2395C24.8787 27.3306 24.861 27.4209 24.8263 27.5051C24.7916 27.5894 24.7406 27.6659 24.6763 27.7304C24.6119 27.7949 24.5355 27.8461 24.4513 27.8811C24.3672 27.916 24.277 27.934 24.1859 27.934Z" fill="#0033FF"/>
<path d="M24.1859 20.111H5.06654C4.88268 20.111 4.70631 20.038 4.57613 19.9082C4.44594 19.7784 4.37256 19.6022 4.37207 19.4184C4.37207 19.2342 4.44523 19.0575 4.57547 18.9272C4.70571 18.797 4.88236 18.7239 5.06654 18.7239H24.1859C24.277 18.7239 24.3672 18.7419 24.4513 18.7768C24.5355 18.8117 24.6119 18.8629 24.6763 18.9274C24.7406 18.9919 24.7916 19.0685 24.8263 19.1527C24.861 19.237 24.8787 19.3272 24.8785 19.4184C24.8785 19.602 24.8055 19.7782 24.6756 19.9081C24.5457 20.038 24.3696 20.111 24.1859 20.111Z" fill="#0033FF"/>
<path d="M24.1859 24.0219H5.06654C4.88236 24.0219 4.70571 23.9487 4.57547 23.8184C4.44523 23.6882 4.37207 23.5116 4.37207 23.3274C4.37256 23.1435 4.44594 22.9673 4.57613 22.8375C4.70631 22.7077 4.88268 22.6348 5.06654 22.6348H24.1859C24.3696 22.6348 24.5457 22.7077 24.6756 22.8376C24.8055 22.9675 24.8785 23.1437 24.8785 23.3274C24.8787 23.4185 24.861 23.5088 24.8263 23.593C24.7916 23.6773 24.7406 23.7538 24.6763 23.8184C24.6119 23.8829 24.5355 23.934 24.4513 23.969C24.3672 24.0039 24.277 24.0219 24.1859 24.0219Z" fill="#0033FF"/>
<path d="M16.6448 16.2001H5.06654C4.88268 16.2001 4.70631 16.1272 4.57613 15.9973C4.44594 15.8675 4.37256 15.6913 4.37207 15.5075C4.37207 15.3233 4.44523 15.1466 4.57547 15.0164C4.70571 14.8862 4.88236 14.813 5.06654 14.813H16.6448C16.8287 14.8135 17.0048 14.8868 17.1347 15.017C17.2645 15.1472 17.3374 15.3236 17.3374 15.5075C17.3369 15.691 17.2638 15.8669 17.134 15.9967C17.0042 16.1265 16.8284 16.1996 16.6448 16.2001Z" fill="#0033FF"/>
<path d="M16.6448 12.2891H5.06654C4.88268 12.2891 4.70631 12.2161 4.57613 12.0863C4.44594 11.9565 4.37256 11.7803 4.37207 11.5965C4.37207 11.4123 4.44523 11.2356 4.57547 11.1053C4.70571 10.9751 4.88236 10.902 5.06654 10.902H16.6448C16.8287 10.9025 17.0048 10.9758 17.1347 11.106C17.2645 11.2362 17.3374 11.4126 17.3374 11.5965C17.3369 11.78 17.2638 11.9559 17.134 12.0857C17.0042 12.2154 16.8284 12.2886 16.6448 12.2891Z" fill="#0033FF"/>
<path d="M23.8466 10.902H20.5724C20.0017 10.902 19.5391 11.3646 19.5391 11.9353V15.2094C19.5391 15.7801 20.0017 16.2427 20.5724 16.2427H23.8466C24.4174 16.2427 24.88 15.7801 24.88 15.2094V11.9353C24.88 11.3646 24.4174 10.902 23.8466 10.902Z" fill="#0033FF"/>
</svg>
