<svg width="84" height="64" viewBox="0 0 84 64" fill="none" xmlns="http://www.w3.org/2000/svg">
<rect x="0.5" y="0.5" width="83" height="63" rx="3.5" fill="white"/>
<rect x="0.5" y="0.5" width="83" height="63" rx="3.5" stroke="#FF7A00"/>
<path d="M49 30.5H37C35.9391 30.5 34.9217 30.0786 34.1716 29.3284C33.4214 28.5783 33 27.5609 33 26.5V14.5C33 13.9696 33.2107 13.4609 33.5858 13.0858C33.9609 12.7107 34.4696 12.5 35 12.5H45C45.5304 12.5 46.0391 12.7107 46.4142 13.0858C46.7893 13.4609 47 13.9696 47 14.5V27.5C47 29.157 47.343 30.5 49 30.5Z" stroke="#FF7A00" stroke-width="1.72496" stroke-linecap="round" stroke-linejoin="round"/>
<path d="M51 19.5C51 18.9696 50.7893 18.4609 50.4142 18.0858C50.0391 17.7107 49.5304 17.5 49 17.5H47V28C47 29.38 47.62 30.5 49 30.5C50.38 30.5 51 29.38 51 28V19.5Z" stroke="#FF7A00" stroke-width="1.72496" stroke-linecap="round" stroke-linejoin="round"/>
<path d="M43 20.5H37M43 16.5H37M40 24.5H37" stroke="#FF7A00" stroke-width="1.72496" stroke-linecap="round"/>
<path d="M16.9512 41.7461C18.6152 41.7344 19.7988 42.7656 19.8105 44.2422C19.7988 45.7188 18.6152 46.75 16.9512 46.75C15.2988 46.75 14.0801 45.7188 14.0918 44.2422C14.0801 42.7656 15.2988 41.7344 16.9512 41.7461ZM16.9512 42.707C15.9316 42.707 15.1816 43.3164 15.1934 44.2422C15.1816 45.168 15.9316 45.7773 16.9512 45.7773C17.9707 45.7773 18.7207 45.168 18.7207 44.2422C18.7207 43.3164 17.9707 42.707 16.9512 42.707ZM22.2129 40.9961V51.5195H21.0996V40.9961H22.2129ZM13.5879 48.332C15.498 48.332 18.1465 48.3086 20.4434 47.9805L20.5254 48.7891C18.1465 49.2461 15.6035 49.2578 13.7285 49.2578L13.5879 48.332ZM30.041 41.9453V44.8398H25.8223V46.0234H30.3105V46.9023H27.9668V48.5078C28.9336 48.4727 29.9004 48.4082 30.8145 48.3086L30.8965 49.1289C28.5879 49.4805 26.0918 49.5273 24.0996 49.5039L23.959 48.5781C24.8555 48.5781 25.8457 48.5723 26.8652 48.543V46.9023H24.709V44.0078H28.9395V42.8359H24.6973V41.9453H30.041ZM32.584 40.9961V51.5195H31.4707V40.9961H32.584ZM45.9434 40.9961V46.7148H44.8418V44.3945H42.873V43.4805H44.8418V40.9961H45.9434ZM40.2129 47.1836V48.3906H44.8418V47.1836H45.9434V51.3672H39.1113V47.1836H40.2129ZM40.2129 50.4648H44.8418V49.2578H40.2129V50.4648ZM40.9629 42.6367C40.9629 43.9375 41.9121 45.25 43.4941 45.7891L42.9199 46.6562C41.7363 46.2402 40.8691 45.4023 40.4121 44.3594C39.9492 45.5254 39.0352 46.4512 37.7871 46.8906L37.2129 46.0117C38.8301 45.4492 39.8262 44.0664 39.8262 42.625V42.4844H37.5527V41.582H43.2129V42.4844H40.9629V42.6367ZM52.9512 41.9219C52.9395 43.3164 54.6504 44.6289 56.7129 44.8984L56.2793 45.8125C54.5625 45.5371 53.0508 44.6465 52.377 43.4102C51.6855 44.6523 50.1797 45.5371 48.4746 45.8125L48.0293 44.8984C50.0918 44.6289 51.7793 43.3281 51.791 41.9219V41.3477H52.9512V41.9219ZM57.1465 46.8438V47.7578H52.8809V51.4961H51.791V47.7578H47.5723V46.8438H57.1465ZM70.4473 45.8594V46.7617H66.2051V47.7695C68.1328 47.875 69.2754 48.5254 69.2754 49.6211C69.2754 50.8164 67.916 51.4844 65.6543 51.4727C63.3691 51.4844 62.0098 50.8164 62.0098 49.6211C62.0098 48.5254 63.1523 47.875 65.1035 47.7695V46.7617H60.873V45.8594H70.4473ZM65.6543 48.6133C64.0488 48.6133 63.1348 48.9766 63.1348 49.6211C63.1348 50.2539 64.0488 50.6289 65.6543 50.6172C67.2363 50.6289 68.1621 50.2539 68.1621 49.6211C68.1621 48.9766 67.2363 48.6133 65.6543 48.6133ZM69.5918 41.4766V42.3672H66.4043C66.5625 43.3809 68.0391 44.2422 69.9551 44.4297L69.5566 45.3086C67.7402 45.0977 66.2344 44.3301 65.666 43.2109C65.0801 44.3301 63.5801 45.0977 61.7637 45.3086L61.377 44.4297C63.2637 44.2422 64.7461 43.3809 64.9043 42.3672H61.752V41.4766H69.5918Z" fill="#FF7A00"/>
</svg>
