<svg width="128" height="128" viewBox="0 0 128 128" fill="none" xmlns="http://www.w3.org/2000/svg">
<circle cx="63.9998" cy="42.6666" r="21.3333" stroke="#33363F" stroke-width="10.6667" stroke-linecap="round"/>
<path fill-rule="evenodd" clip-rule="evenodd" d="M71.0752 80.4046C68.7391 80.1359 66.3741 80 63.9998 80C53.7625 80 43.7001 82.5271 35.3657 87.3235C27.0344 92.1181 20.6996 99.0413 17.7645 107.257C16.7735 110.031 18.2188 113.083 20.9926 114.074C23.7664 115.065 26.8184 113.619 27.8094 110.845C29.7361 105.452 34.1145 100.35 40.6862 96.5685C46.0942 93.4562 52.6064 91.4682 59.509 90.8628C61.2737 85.6541 65.6479 81.6493 71.0752 80.4046Z" fill="#33363F"/>
<path d="M96 74.6667L96 117.333" stroke="#33363F" stroke-width="13.3333" stroke-linecap="round"/>
<path d="M117.333 96L74.6668 96" stroke="#33363F" stroke-width="13.3333" stroke-linecap="round"/>
</svg>
