<svg width="32" height="32" viewBox="0 0 32 32" fill="none" xmlns="http://www.w3.org/2000/svg">
<g clip-path="url(#clip0_19_1227)">
<path d="M15.9997 4C14.533 4 13.333 5.2 13.333 6.66667C13.333 8.13333 14.533 9.33333 15.9997 9.33333C17.4663 9.33333 18.6663 8.13333 18.6663 6.66667C18.6663 5.2 17.4663 4 15.9997 4ZM15.9997 22.6667C14.533 22.6667 13.333 23.8667 13.333 25.3333C13.333 26.8 14.533 28 15.9997 28C17.4663 28 18.6663 26.8 18.6663 25.3333C18.6663 23.8667 17.4663 22.6667 15.9997 22.6667ZM15.9997 13.3333C14.533 13.3333 13.333 14.5333 13.333 16C13.333 17.4667 14.533 18.6667 15.9997 18.6667C17.4663 18.6667 18.6663 17.4667 18.6663 16C18.6663 14.5333 17.4663 13.3333 15.9997 13.3333Z" fill="#1D1D1D"/>
</g>
<defs>
<clipPath id="clip0_19_1227">
<rect width="32" height="32" fill="white"/>
</clipPath>
</defs>
</svg>
