<svg width="48" height="49" viewBox="0 0 48 49" fill="none" xmlns="http://www.w3.org/2000/svg">
<g clip-path="url(#clip0_179_694)">
<path fill-rule="evenodd" clip-rule="evenodd" d="M3.84375 6.21875H43.7812L43.8281 33.4344L45.7969 34.8219C46.8844 35.5906 47.8219 36.2938 47.8875 36.3781C47.9719 36.5094 48 37.2219 48 39.2844C48 41.1156 47.9656 42.1 47.8969 42.2375C47.8406 42.3594 47.7 42.5281 47.5875 42.6125C47.4 42.7719 46.0219 42.7812 0.5625 42.7812L0 42.2188V39.4531C0 37.4281 0.028125 36.6219 0.121875 36.4437C0.178125 36.3125 1.05 35.5906 3.84375 33.4531V6.21875ZM5.4375 9.59375H42.1875V7.90625H5.4375V9.59375ZM5.48438 21.5469L6.9375 21.5938V11.2812H5.4375L5.48438 21.5469ZM8.625 14.5625C8.625 16.3625 8.64375 17.8438 8.67188 17.8438C8.69063 17.8438 9.12187 16.6062 9.60938 15.0969C10.1062 13.5969 10.5844 12.1156 10.6875 11.8156L10.875 11.2812H8.625V14.5625ZM11.1281 15.6594C10.3312 18.0781 9.70313 20.0844 9.73125 20.1406C9.75938 20.1969 9.98437 20 10.2375 19.7188C10.4812 19.4375 11.1 18.6969 11.6063 18.0781C12.1125 17.4594 12.7969 16.5312 13.1344 16.0156C13.4813 15.5 13.9406 14.6938 14.175 14.2344C14.4094 13.775 14.6812 13.1188 14.7844 12.7812C14.8969 12.4437 15 11.975 15.0375 11.7219L15.0938 11.2812H12.5719L11.1281 15.6594ZM16.6594 11.8156C16.6312 12.1156 16.5844 12.425 16.5563 12.5187C16.5 12.6781 16.8844 12.6781 23.8125 12.6781H31.125C31.05 12.3594 30.9938 12.0406 30.9563 11.7687L30.8906 11.2719H16.7062L16.6594 11.8156ZM32.5875 11.675C32.625 11.9 32.7656 12.4156 32.9062 12.8281C33.0469 13.2406 33.3562 13.9625 33.5906 14.4219C33.825 14.8813 34.2656 15.6219 34.5563 16.0625C34.8469 16.5031 35.3719 17.2156 35.7094 17.6562C36.0469 18.0969 36.6562 18.8375 37.0687 19.2969C37.4719 19.7563 37.8469 20.15 37.8844 20.1594C37.9313 20.1781 37.95 20.0937 37.9219 19.9719C37.8937 19.8594 37.2375 17.8625 36.4781 15.5469L35.0906 11.3281L32.5312 11.2719L32.5875 11.675ZM37.875 14.6094C38.4375 16.3344 38.9437 17.75 39 17.75C39.0563 17.75 39.0938 16.6156 39.0938 14.5156V11.2812C37.2844 11.2812 36.8438 11.3187 36.8438 11.375C36.8438 11.4313 37.3031 12.8844 37.875 14.6094ZM40.6875 21.5938H42.1875V11.2812H40.6875V21.5938ZM15.4875 15.1719C15.2719 15.6125 14.8969 16.2781 14.6531 16.6531C14.4188 17.0281 13.9406 17.7125 13.5938 18.1719C13.2563 18.6406 12.5813 19.4844 12.0938 20.0469C11.6062 20.6187 10.6594 21.65 9.975 22.3438L8.74688 23.6094L12.6094 33.0406L35.0719 32.9844L38.9062 23.5625C37.2656 21.9312 36.4781 21.0969 36.0844 20.6562C35.6906 20.2156 35.0719 19.4844 34.6969 19.0156C34.3219 18.5562 33.6656 17.6469 33.2344 17C32.8031 16.3531 32.2969 15.5 32.0906 15.1063L31.7344 14.375H15.8719L15.4875 15.1719ZM6.19687 23.4688C6.79687 23.4688 6.94687 23.4406 6.94687 23.3281C6.94687 23.2156 6.79687 23.1875 6.19687 23.1875C5.5875 23.1875 5.44687 23.2156 5.44687 23.3281C5.44687 23.4406 5.5875 23.4688 6.19687 23.4688ZM41.4469 23.4688C42.0469 23.4688 42.1969 23.4406 42.1969 23.3281C42.1969 23.2156 42.0469 23.1875 41.4469 23.1875C40.8375 23.1875 40.6969 23.2156 40.6969 23.3281C40.6969 23.4406 40.8375 23.4688 41.4469 23.4688ZM5.42813 29.1125L5.44687 33.0312H6.94687V25.0625C5.87812 25.0625 5.53125 25.0906 5.49375 25.1281C5.44687 25.1656 5.41875 26.9563 5.42813 29.1125ZM40.6969 33.0312H42.1969V25.0625H40.6969V33.0312ZM8.63437 33.0312C10.3031 33.0312 10.7906 33.0031 10.7906 32.9656C10.7906 32.9281 10.3406 31.7938 9.79688 30.4531C9.25313 29.1125 8.76562 27.9781 8.71875 27.9219C8.6625 27.8656 8.625 28.8219 8.63437 30.4344V33.0312ZM37.8281 30.5469C37.3312 31.7844 36.9 32.8438 36.8812 32.9094C36.8531 33.0031 37.1156 33.0312 37.9781 33.0312H39.1031C39.1031 28.7656 39.0656 27.875 39 27.875C38.9531 27.875 38.8688 27.9688 38.8313 28.0813C38.7844 28.2031 38.3344 29.3094 37.8281 30.5469ZM3.3375 35.8906C19.2469 35.9281 28.5094 35.9281 34.1813 35.9094L44.4938 35.8906L42.6656 34.625H5.00625L3.3375 35.8906ZM1.60313 41.0938H46.4156V37.625H1.60313V41.0938Z" fill="#FF7A00"/>
<path d="M15.4875 15.1719C15.2719 15.6125 14.8969 16.2781 14.6531 16.6531C14.4188 17.0281 13.9406 17.7125 13.5938 18.1719C13.2563 18.6406 12.5813 19.4844 12.0938 20.0469C11.6062 20.6187 10.6594 21.65 9.975 22.3438L8.74688 23.6094L12.6094 33.0406L35.0719 32.9844L38.9062 23.5625C37.2656 21.9312 36.4781 21.0969 36.0844 20.6562C35.6906 20.2156 35.0719 19.4844 34.6969 19.0156C34.3219 18.5562 33.6656 17.6469 33.2344 17C32.8031 16.3531 32.2969 15.5 32.0906 15.1063L31.7344 14.375H15.8719L15.4875 15.1719Z" fill="#FFEFE0"/>
<path d="M1.60313 41.0938H46.4156V37.625H1.60313V41.0938Z" fill="#FFEFE0"/>
<path d="M3.3375 35.8906C19.2469 35.9281 28.5094 35.9281 34.1813 35.9094L44.4938 35.8906L42.6656 34.625H5.00625L3.3375 35.8906Z" fill="#FFEFE0"/>
<path d="M40.6969 33.0312H42.1969V25.0625H40.6969V33.0312Z" fill="#FFEFE0"/>
<path d="M37.8281 30.5469C37.3312 31.7844 36.9 32.8438 36.8812 32.9094C36.8531 33.0031 37.1156 33.0312 37.9781 33.0312H39.1031C39.1031 28.7656 39.0656 27.875 39 27.875C38.9531 27.875 38.8688 27.9688 38.8313 28.0813C38.7844 28.2031 38.3344 29.3094 37.8281 30.5469Z" fill="#FFEFE0"/>
<path d="M5.42813 29.1125L5.44687 33.0312H6.94687V25.0625C5.87812 25.0625 5.53125 25.0906 5.49375 25.1281C5.44687 25.1656 5.41875 26.9563 5.42813 29.1125Z" fill="#FFEFE0"/>
<path d="M8.63437 33.0312C10.3031 33.0312 10.7906 33.0031 10.7906 32.9656C10.7906 32.9281 10.3406 31.7938 9.79688 30.4531C9.25313 29.1125 8.76562 27.9781 8.71875 27.9219C8.6625 27.8656 8.625 28.8219 8.63437 30.4344V33.0312Z" fill="#FFEFE0"/>
<path d="M40.6875 21.5938H42.1875V11.2812H40.6875V21.5938Z" fill="#FFEFE0"/>
<path d="M37.875 14.6094C38.4375 16.3344 38.9437 17.75 39 17.75C39.0563 17.75 39.0938 16.6156 39.0938 14.5156V11.2812C37.2844 11.2812 36.8438 11.3187 36.8438 11.375C36.8438 11.4313 37.3031 12.8844 37.875 14.6094Z" fill="#FFEFE0"/>
<path d="M32.5875 11.675C32.625 11.9 32.7656 12.4156 32.9062 12.8281C33.0469 13.2406 33.3562 13.9625 33.5906 14.4219C33.825 14.8813 34.2656 15.6219 34.5563 16.0625C34.8469 16.5031 35.3719 17.2156 35.7094 17.6562C36.0469 18.0969 36.6562 18.8375 37.0687 19.2969C37.4719 19.7563 37.8469 20.15 37.8844 20.1594C37.9313 20.1781 37.95 20.0937 37.9219 19.9719C37.8937 19.8594 37.2375 17.8625 36.4781 15.5469L35.0906 11.3281L32.5312 11.2719L32.5875 11.675Z" fill="#FFEFE0"/>
<path d="M16.6594 11.8156C16.6312 12.1156 16.5844 12.425 16.5563 12.5187C16.5 12.6781 16.8844 12.6781 23.8125 12.6781H31.125C31.05 12.3594 30.9938 12.0406 30.9563 11.7687L30.8906 11.2719H16.7062L16.6594 11.8156Z" fill="#FFEFE0"/>
<path d="M5.4375 9.59375H42.1875V7.90625H5.4375V9.59375Z" fill="#FFEFE0"/>
<path d="M11.1281 15.6594C10.3312 18.0781 9.70313 20.0844 9.73125 20.1406C9.75938 20.1969 9.98437 20 10.2375 19.7188C10.4812 19.4375 11.1 18.6969 11.6063 18.0781C12.1125 17.4594 12.7969 16.5312 13.1344 16.0156C13.4813 15.5 13.9406 14.6938 14.175 14.2344C14.4094 13.775 14.6812 13.1188 14.7844 12.7812C14.8969 12.4437 15 11.975 15.0375 11.7219L15.0938 11.2812H12.5719L11.1281 15.6594Z" fill="#FFEFE0"/>
<path d="M8.625 14.5625C8.625 16.3625 8.64375 17.8438 8.67188 17.8438C8.69063 17.8438 9.12187 16.6062 9.60938 15.0969C10.1062 13.5969 10.5844 12.1156 10.6875 11.8156L10.875 11.2812H8.625V14.5625Z" fill="#FFEFE0"/>
<path d="M5.48438 21.5469L6.9375 21.5938V11.2812H5.4375L5.48438 21.5469Z" fill="#FFEFE0"/>
<path d="M41.4469 23.4688C42.0469 23.4688 42.1969 23.4406 42.1969 23.3281C42.1969 23.2156 42.0469 23.1875 41.4469 23.1875C40.8375 23.1875 40.6969 23.2156 40.6969 23.3281C40.6969 23.4406 40.8375 23.4688 41.4469 23.4688Z" fill="#FFEFE0"/>
<path d="M6.19687 23.4688C6.79687 23.4688 6.94687 23.4406 6.94687 23.3281C6.94687 23.2156 6.79687 23.1875 6.19687 23.1875C5.5875 23.1875 5.44687 23.2156 5.44687 23.3281C5.44687 23.4406 5.5875 23.4688 6.19687 23.4688Z" fill="#FFEFE0"/>
</g>
<defs>
<clipPath id="clip0_179_694">
<rect width="48" height="48" fill="white" transform="translate(0 0.5)"/>
</clipPath>
</defs>
</svg>
