<svg width="32" height="32" viewBox="0 0 32 32" fill="none" xmlns="http://www.w3.org/2000/svg">
<path fill-rule="evenodd" clip-rule="evenodd" d="M30.6663 16.0002C30.6663 24.1003 24.0998 30.6668 15.9997 30.6668C7.8995 30.6668 1.33301 24.1003 1.33301 16.0002C1.33301 7.89999 7.8995 1.3335 15.9997 1.3335C24.0998 1.3335 30.6663 7.89999 30.6663 16.0002ZM15.9997 28.0002C22.6271 28.0002 27.9997 22.6276 27.9997 16.0002C27.9997 9.37274 22.6271 4.00016 15.9997 4.00016C9.37226 4.00016 3.99967 9.37274 3.99967 16.0002C3.99967 22.6276 9.37226 28.0002 15.9997 28.0002Z" fill="#0033FF"/>
<path fill-rule="evenodd" clip-rule="evenodd" d="M9.50025 20.1348C9.98233 19.5781 10.8244 19.5177 11.381 19.9998C11.8491 20.4051 12.5223 20.7418 13.3332 20.9758C14.1439 21.2099 15.0636 21.3331 15.9998 21.3331C16.936 21.3331 17.8557 21.2099 18.6665 20.9758C19.4773 20.7418 20.1506 20.4051 20.6186 19.9998C21.1753 19.5177 22.0173 19.5781 22.4994 20.1348C22.9815 20.6915 22.921 21.5335 22.3644 22.0156C21.5187 22.748 20.4608 23.2334 19.4061 23.5379C18.3303 23.8485 17.1592 23.9998 15.9998 23.9998C14.8405 23.9998 13.6694 23.8485 12.5936 23.5379C11.5389 23.2334 10.481 22.748 9.63529 22.0156C9.07864 21.5335 9.01818 20.6915 9.50025 20.1348Z" fill="#0033FF"/>
<path d="M13.3337 13.3333C13.3337 14.0697 12.7367 14.6667 12.0003 14.6667C11.2639 14.6667 10.667 14.0697 10.667 13.3333C10.667 12.597 11.2639 12 12.0003 12C12.7367 12 13.3337 12.597 13.3337 13.3333Z" fill="#0033FF"/>
<path fill-rule="evenodd" clip-rule="evenodd" d="M14 13.3335C14 14.4381 13.1046 15.3335 12 15.3335C10.8954 15.3335 10 14.4381 10 13.3335C10 12.2289 10.8954 11.3335 12 11.3335C13.1046 11.3335 14 12.2289 14 13.3335ZM12 14.6668C12.7364 14.6668 13.3333 14.0699 13.3333 13.3335C13.3333 12.5971 12.7364 12.0002 12 12.0002C11.2636 12.0002 10.6667 12.5971 10.6667 13.3335C10.6667 14.0699 11.2636 14.6668 12 14.6668Z" fill="#0033FF"/>
<path d="M21.3337 13.3333C21.3337 14.0697 20.7367 14.6667 20.0003 14.6667C19.2639 14.6667 18.667 14.0697 18.667 13.3333C18.667 12.597 19.2639 12 20.0003 12C20.7367 12 21.3337 12.597 21.3337 13.3333Z" fill="#0033FF"/>
<path fill-rule="evenodd" clip-rule="evenodd" d="M22 13.3335C22 14.4381 21.1046 15.3335 20 15.3335C18.8954 15.3335 18 14.4381 18 13.3335C18 12.2289 18.8954 11.3335 20 11.3335C21.1046 11.3335 22 12.2289 22 13.3335ZM20 14.6668C20.7364 14.6668 21.3333 14.0699 21.3333 13.3335C21.3333 12.5971 20.7364 12.0002 20 12.0002C19.2636 12.0002 18.6667 12.5971 18.6667 13.3335C18.6667 14.0699 19.2636 14.6668 20 14.6668Z" fill="#0033FF"/>
</svg>
