<svg width="32" height="32" viewBox="0 0 32 32" fill="none" xmlns="http://www.w3.org/2000/svg">
<path fill-rule="evenodd" clip-rule="evenodd" d="M8 9.33317C8 5.65127 10.9848 2.6665 14.6667 2.6665C18.3486 2.6665 21.3333 5.65127 21.3333 9.33317V19.9998C21.3333 22.209 19.5425 23.9998 17.3333 23.9998C15.1242 23.9998 13.3333 22.209 13.3333 19.9998V9.33317C13.3333 8.59679 13.9303 7.99984 14.6667 7.99984C15.403 7.99984 16 8.59679 16 9.33317V19.9998C16 20.7362 16.597 21.3332 17.3333 21.3332C18.0697 21.3332 18.6667 20.7362 18.6667 19.9998V9.33317C18.6667 7.12403 16.8758 5.33317 14.6667 5.33317C12.4575 5.33317 10.6667 7.12403 10.6667 9.33317V19.9998C10.6667 23.6817 13.6514 26.6665 17.3333 26.6665C21.0152 26.6665 24 23.6817 24 19.9998V13.3332C24 12.5968 24.597 11.9998 25.3333 11.9998C26.0697 11.9998 26.6667 12.5968 26.6667 13.3332V19.9998C26.6667 25.1545 22.488 29.3332 17.3333 29.3332C12.1787 29.3332 8 25.1545 8 19.9998V9.33317Z" fill="#0033FF"/>
</svg>
